HIERARCHY
ROOT Hips
{
    OFFSET 0.000000 0.000000 0.000000
    CHANNELS 6 Xposition Yposition Zposition Zrotation Xrotation Yrotation
    JOINT Spine
    {
        OFFSET -0.000000 8.603107 0.000000
        CHANNELS 3 Zrotation Xrotation Yrotation
        JOINT Spine1
        {
            OFFSET -0.000000 23.906662 0.000000
            CHANNELS 3 Zrotation Xrotation Yrotation
            JOINT Neck
            {
                OFFSET -0.000000 23.808481 2.164407
                CHANNELS 3 Zrotation Xrotation Yrotation
                JOINT Head
                {
                    OFFSET -0.000000 14.688231 -2.098319
                    CHANNELS 3 Zrotation Xrotation Yrotation
                    End Site
                    {
                        OFFSET -0.000000 26.228985 0.000000
                    }
                }
            }
            JOINT LeftShoulder
            {
                OFFSET 4.178941 22.658146 -0.129871
                CHANNELS 3 Zrotation Xrotation Yrotation
                JOINT LeftArm
                {
                    OFFSET 9.497952 0.000000 0.000000
                    CHANNELS 3 Zrotation Xrotation Yrotation
                    JOINT LeftForeArm
                    {
                        OFFSET 38.855015 0.000000 0.000000
                        CHANNELS 3 Zrotation Xrotation Yrotation
                        JOINT LeftHand
                        {
                            OFFSET 24.940550 0.000000 0.000000
                            CHANNELS 3 Zrotation Xrotation Yrotation
                            End Site
                            {
                                OFFSET 15.737392 0.000000 0.000000
                            }
                        }
                    }
                }
            }
            JOINT RightShoulder
            {
                OFFSET -4.145384 22.658146 -0.129871
                CHANNELS 3 Zrotation Xrotation Yrotation
                JOINT RightArm
                {
                    OFFSET -9.497952 0.000000 0.000000
                    CHANNELS 3 Zrotation Xrotation Yrotation
                    JOINT RightForeArm
                    {
                        OFFSET -38.855015 0.000000 0.000000
                        CHANNELS 3 Zrotation Xrotation Yrotation
                        JOINT RightHand
                        {
                            OFFSET -24.940550 0.000000 0.000000
                            CHANNELS 3 Zrotation Xrotation Yrotation
                            End Site
                            {
                                OFFSET -15.737392 0.000000 0.000000
                            }
                        }
                    }
                }
            }
        }
    }
    JOINT LeftUpLeg
    {
        OFFSET 10.491594 0.000000 0.000000
        CHANNELS 3 Zrotation Xrotation Yrotation
        JOINT LeftLeg
        {
            OFFSET -0.000000 -46.080647 0.000000
            CHANNELS 3 Zrotation Xrotation Yrotation
            JOINT LeftFoot
            {
                OFFSET -0.000000 -50.184704 0.000000
                CHANNELS 3 Zrotation Xrotation Yrotation
                JOINT LeftToeBase
                {
                    OFFSET -0.000000 -6.819536 15.737392
                    CHANNELS 3 Zrotation Xrotation Yrotation
                    End Site
                    {
                        OFFSET -0.000000 0.000000 4.196638
                    }
                }
            }
        }
    }
    JOINT RightUpLeg
    {
        OFFSET -10.491594 0.000000 0.000000
        CHANNELS 3 Zrotation Xrotation Yrotation
        JOINT RightLeg
        {
            OFFSET -0.000000 -46.080647 0.000000
            CHANNELS 3 Zrotation Xrotation Yrotation
            JOINT RightFoot
            {
                OFFSET -0.000000 -50.184704 0.000000
                CHANNELS 3 Zrotation Xrotation Yrotation
                JOINT RightToeBase
                {
                    OFFSET -0.000000 -6.819536 15.737392
                    CHANNELS 3 Zrotation Xrotation Yrotation
                    End Site
                    {
                        OFFSET -0.000000 0.000000 4.196638
                    }
                }
            }
        }
    }
}
MOTION
Frames:    4
Frame Time:    0.008333
-63.191677    103.344917    64.864700    -0.869898    -0.631670    93.096588    -1.765946    -6.289694    1.513949    4.930861    1.536860    1.544837    3.932902    15.403899    1.156664    -0.205728    2.055369    1.146454    9.799426    0.303410    -10.273867    -21.903955    4.276364    9.726686    2.560849    -4.491550    -0.544527    2.868507    -4.435966    1.741138    -13.429188    3.316223    -11.925461    19.025612    -1.048789    1.716660    -1.266874    -5.295143    0.448784    -6.363857    -5.152586    -2.485495    -0.608872    -1.644786    1.218624    -2.942551    11.303489    -5.853526    10.123363    -7.691078    9.785996    0.000000    0.000000    0.000000    2.509436    3.350256    -2.223201    2.024635    0.683451    -0.976205    -4.568770    -2.840753    -9.483154    0.000000    0.000000    0.000000    
-63.189445    103.343521    64.875534    -0.868365    -0.623776    93.103447    -1.748128    -6.357443    1.516595    4.858534    1.732030    1.540206    3.967687    15.233914    1.164557    -0.201293    2.139427    1.148745    9.971924    0.225754    -10.170535    -21.991629    4.323665    9.643410    2.536866    -4.493092    -0.542548    2.821763    -4.438133    1.750195    -13.445968    3.242973    -12.028046    19.065779    -0.946269    1.773140    -1.232939    -5.351461    0.458332    -6.347271    -5.208712    -2.496331    -0.615762    -1.653451    1.215638    -2.930545    11.326257    -5.855100    10.106428    -7.699338    9.782181    0.000000    0.000000    0.000000    2.514078    3.348755    -2.243862    2.013866    0.692681    -0.990693    -4.590793    -2.848061    -9.453984    0.000000    0.000000    0.000000    
-63.182758    103.339561    64.887413    -0.856788    -0.622730    93.109245    -1.774986    -6.280124    1.504886    4.921944    1.587931    1.534056    3.888841    15.415816    1.176321    -0.165480    2.076686    1.172769    9.801525    0.264121    -10.245109    -21.898865    4.373071    9.751416    2.577764    -4.470008    -0.505630    2.820525    -4.416602    1.713909    -13.438850    3.332266    -11.944191    19.052603    -1.046222    1.727636    -1.254696    -5.319776    0.432691    -6.316614    -5.178457    -2.485885    -0.608994    -1.648994    1.223895    -2.928761    11.347547    -5.879506    10.118917    -7.708875    9.794668    0.000000    0.000000    0.000000    2.522499    3.369963    -2.257545    2.014815    0.682274    -0.987562    -4.594967    -2.856920    -9.457500    0.000000    0.000000    0.000000    
-63.177402    103.336403    64.898354    -0.851736    -0.620767    93.111595    -1.749947    -6.355492    1.512332    4.843281    1.794841    1.533622    3.924653    15.236564    1.176934    -0.154670    2.178779    1.167982    9.989562    0.198277    -10.146657    -21.998629    4.435568    9.654549    2.538383    -4.511455    -0.493128    2.911922    -4.457569    1.697206    -13.444806    3.233670    -12.047915    19.080145    -0.932721    1.772631    -1.213467    -5.376623    0.439259    -6.323365    -5.234892    -2.492330    -0.609518    -1.650102    1.221663    -2.928304    11.363716    -5.854389    10.146545    -7.723990    9.790750    0.000000    0.000000    0.000000    2.532081    3.381414    -2.274082    2.008710    0.676050    -1.009697    -4.633739    -2.866084    -9.432272    0.000000    0.000000    0.000000    
